<?xml version="1.0" standalone="no"?>
<!DOCTYPE svg PUBLIC "-//W3C//DTD SVG 20010904//EN"
 "http://www.w3.org/TR/2001/REC-SVG-20010904/DTD/svg10.dtd">
<svg version="1.0" xmlns="http://www.w3.org/2000/svg"
 width="261.000000pt" height="261.000000pt" viewBox="0 0 261.000000 261.000000"
 preserveAspectRatio="xMidYMid meet">
<metadata>
Created by potrace 1.14, written by Peter Selinger 2001-2017
</metadata>
<g transform="translate(0.000000,261.000000) scale(0.100000,-0.100000)"
fill="#000000" stroke="none">
<path d="M623 2349 c-49 -49 -137 -175 -138 -199 -1 -3 -10 -30 -22 -61 -34
-87 -51 -198 -49 -319 l1 -110 -123 0 c-156 0 -211 -20 -248 -91 -46 -90 -12
-194 77 -239 38 -20 58 -20 1212 -18 l1174 3 36 28 c49 38 67 75 67 142 0 59
-8 81 -42 120 -37 42 -87 55 -221 55 l-122 0 -1 128 c-1 185 -43 337 -130 467
-37 57 -122 145 -139 145 -6 0 -19 -15 -28 -32 -9 -18 -37 -64 -61 -103 -25
-38 -61 -97 -81 -130 -20 -33 -93 -152 -164 -265 l-128 -205 -173 0 -173 0
-232 372 -232 372 -60 -60z"/>
<path d="M287 1166 c-2 -6 -3 -184 -2 -396 1 -335 3 -390 18 -423 26 -60 57
-97 105 -128 l46 -29 866 0 867 0 45 30 c54 36 96 96 112 159 8 31 12 168 11
421 l0 375 -1032 1 c-728 0 -1033 -3 -1036 -10z m537 -326 c43 -16 85 -68 91
-113 7 -53 4 -64 -21 -108 -57 -95 -214 -88 -259 11 -58 130 59 260 189 210z
m562 -6 c47 -22 76 -67 81 -123 14 -158 -193 -224 -278 -89 -26 42 -22 126 7
165 44 58 124 78 190 47z m548 2 c105 -44 114 -198 16 -264 -70 -47 -177 -15
-215 64 -59 126 69 254 199 200z"/>
</g>
</svg>
