<svg xmlns="http://www.w3.org/2000/svg" width="26" height="27" viewBox="0 0 26 27" fill="none">
<path d="M17.6357 24.4416H13.519C12.9123 24.4416 11.5907 24.2574 10.8865 23.5532L7.604 21.0182L8.60066 19.7291L11.959 22.3291C12.2298 22.5891 12.9123 22.8057 13.519 22.8057H17.6357C18.6107 22.8057 19.6615 22.0257 19.8782 21.1482L22.4998 13.1857C22.6732 12.7091 22.6407 12.2757 22.4132 11.9616C22.1748 11.6257 21.7415 11.4307 21.2107 11.4307H16.8773C16.314 11.4307 15.794 11.1924 15.4365 10.7807C15.0682 10.3582 14.9057 9.79491 14.9923 9.20991L15.534 5.73241C15.664 5.12574 15.2523 4.44324 14.6673 4.24824C14.1365 4.05324 13.454 4.33491 13.2157 4.68157L8.774 11.2899L7.43066 10.3907L11.8723 3.78241C12.5548 2.76407 14.0498 2.27657 15.2198 2.72074C16.574 3.16491 17.4407 4.65991 17.1373 6.04657L16.6065 9.45908C16.5957 9.53491 16.5957 9.64324 16.6715 9.72991C16.7257 9.78408 16.8015 9.81658 16.8882 9.81658H21.2215C22.2832 9.81658 23.204 10.2607 23.7457 11.0299C24.2765 11.7774 24.3848 12.7632 24.0382 13.7166L21.449 21.6032C21.0482 23.1741 19.3798 24.4416 17.6357 24.4416Z" fill="#5B5B5B"/>
<path d="M5.8291 23.2499H4.74577C2.7416 23.2499 1.7666 22.3074 1.7666 20.3791V9.76244C1.7666 7.8341 2.7416 6.8916 4.74577 6.8916H5.8291C7.83327 6.8916 8.80827 7.8341 8.80827 9.76244V20.3791C8.80827 22.3074 7.83327 23.2499 5.8291 23.2499ZM4.74577 8.5166C3.56494 8.5166 3.3916 8.79827 3.3916 9.76244V20.3791C3.3916 21.3433 3.56494 21.6249 4.74577 21.6249H5.8291C7.00994 21.6249 7.18327 21.3433 7.18327 20.3791V9.76244C7.18327 8.79827 7.00994 8.5166 5.8291 8.5166H4.74577Z" fill="#5B5B5B"/>
</svg>