<svg xmlns="http://www.w3.org/2000/svg" width="27" height="27" viewBox="0 0 27 27" fill="none">
<path d="M9.58911 20.5308V9.52412C9.58911 9.09079 9.71911 8.66829 9.95744 8.31079L12.9149 3.91245C13.3808 3.20829 14.5399 2.70995 15.5258 3.07829C16.5874 3.43579 17.2916 4.62745 17.0641 5.68912L16.5008 9.23162C16.4574 9.55662 16.5441 9.84912 16.7283 10.0766C16.9124 10.2825 17.1833 10.4125 17.4758 10.4125H21.9283C22.7841 10.4125 23.5208 10.7591 23.9541 11.3658C24.3658 11.9508 24.4416 12.7091 24.1708 13.4783L21.5058 21.5925C21.1699 22.9358 19.7074 24.03 18.2558 24.03H14.0308C13.3049 24.03 12.2866 23.7808 11.8208 23.315L10.4341 22.2425C9.90328 21.8416 9.58911 21.2025 9.58911 20.5308Z" fill="#FFF0E6"/>
<path d="M6.14425 7.41162H5.02841C3.34925 7.41162 2.66675 8.06162 2.66675 9.66495V20.5633C2.66675 22.1666 3.34925 22.8166 5.02841 22.8166H6.14425C7.82341 22.8166 8.50591 22.1666 8.50591 20.5633V9.66495C8.50591 8.06162 7.82341 7.41162 6.14425 7.41162Z" fill="#FFF0E6"/>
</svg>