<svg width="21" height="20" viewBox="0 0 21 20" fill="none" xmlns="http://www.w3.org/2000/svg">
<g id="vuesax/linear/edit">
<g id="edit">
<path id="Vector" d="M9.66675 1.66663H8.00008C3.83341 1.66663 2.16675 3.33329 2.16675 7.49996V12.5C2.16675 16.6666 3.83341 18.3333 8.00008 18.3333H13.0001C17.1667 18.3333 18.8334 16.6666 18.8334 12.5V10.8333" stroke="#FF9548" stroke-width="1.5" stroke-linecap="round" stroke-linejoin="round"/>
<path id="Vector_2" d="M13.8666 2.51663L7.2999 9.0833C7.0499 9.3333 6.7999 9.82497 6.7499 10.1833L6.39157 12.6916C6.25823 13.6 6.8999 14.2333 7.80823 14.1083L10.3166 13.75C10.6666 13.7 11.1582 13.45 11.4166 13.2L17.9832 6.6333C19.1166 5.49997 19.6499 4.1833 17.9832 2.51663C16.3166 0.849966 14.9999 1.3833 13.8666 2.51663Z" stroke="#FF9548" stroke-width="1.5" stroke-miterlimit="10" stroke-linecap="round" stroke-linejoin="round"/>
<path id="Vector_3" d="M12.925 3.45837C13.4834 5.45004 15.0417 7.00837 17.0417 7.57504" stroke="#FF9548" stroke-width="1.5" stroke-miterlimit="10" stroke-linecap="round" stroke-linejoin="round"/>
</g>
</g>
</svg>
