<svg width="20" height="20" viewBox="1 0 18 20" fill="none" xmlns="http://www.w3.org/2000/svg">
<g id="vuesax/outline/like">
<g id="like">
<path id="Vector" d="M13.5666 18.4166H10.3999C9.93322 18.4166 8.91655 18.2749 8.37489 17.7332L5.84989 15.7832L6.61655 14.7916L9.19989 16.7916C9.40822 16.9916 9.93322 17.1582 10.3999 17.1582H13.5666C14.3166 17.1582 15.1249 16.5582 15.2916 15.8832L17.3082 9.75824C17.4416 9.39158 17.4166 9.05824 17.2416 8.81658C17.0582 8.55824 16.7249 8.40824 16.3166 8.40824H12.9832C12.5499 8.40824 12.1499 8.22491 11.8749 7.90824C11.5916 7.58324 11.4666 7.14991 11.5332 6.69991L11.9499 4.02491C12.0499 3.55824 11.7332 3.03324 11.2832 2.88324C10.8749 2.73324 10.3499 2.94991 10.1666 3.21658L6.74989 8.29991L5.71655 7.60824L9.13322 2.52491C9.65822 1.74158 10.8082 1.36658 11.7082 1.70824C12.7499 2.04991 13.4166 3.19991 13.1832 4.26658L12.7749 6.89158C12.7666 6.94991 12.7666 7.03324 12.8249 7.09991C12.8666 7.14158 12.9249 7.16658 12.9916 7.16658H16.3249C17.1416 7.16658 17.8499 7.50824 18.2666 8.09991C18.6749 8.67491 18.7582 9.43324 18.4916 10.1666L16.4999 16.2332C16.1916 17.4416 14.9082 18.4166 13.5666 18.4166Z" fill="#9E9E9E"/>
<path id="Vector_2" d="M4.4834 17.5H3.65007C2.1084 17.5 1.3584 16.775 1.3584 15.2916V7.12496C1.3584 5.64163 2.1084 4.91663 3.65007 4.91663H4.4834C6.02507 4.91663 6.77507 5.64163 6.77507 7.12496V15.2916C6.77507 16.775 6.02507 17.5 4.4834 17.5ZM3.65007 6.16663C2.74173 6.16663 2.6084 6.38329 2.6084 7.12496V15.2916C2.6084 16.0333 2.74173 16.25 3.65007 16.25H4.4834C5.39173 16.25 5.52507 16.0333 5.52507 15.2916V7.12496C5.52507 6.38329 5.39173 6.16663 4.4834 6.16663H3.65007Z" fill="#9E9E9E"/>
</g>
</g>
</svg>
