<svg width="26" height="26" viewBox="0 0 26 26" fill="none" xmlns="http://www.w3.org/2000/svg">
<g id="vuesax/outline/user">
<g id="user">
<path id="Vector" d="M12.9999 13.8125C9.56575 13.8125 6.77075 11.0175 6.77075 7.58329C6.77075 4.14913 9.56575 1.35413 12.9999 1.35413C16.4341 1.35413 19.2291 4.14913 19.2291 7.58329C19.2291 11.0175 16.4341 13.8125 12.9999 13.8125ZM12.9999 2.97913C10.4649 2.97913 8.39575 5.04829 8.39575 7.58329C8.39575 10.1183 10.4649 12.1875 12.9999 12.1875C15.5349 12.1875 17.6041 10.1183 17.6041 7.58329C17.6041 5.04829 15.5349 2.97913 12.9999 2.97913Z" fill="black"/>
<path id="Vector_2" d="M22.306 24.6458C21.8618 24.6458 21.4935 24.2775 21.4935 23.8333C21.4935 20.0958 17.6802 17.0625 13.0002 17.0625C8.32016 17.0625 4.50684 20.0958 4.50684 23.8333C4.50684 24.2775 4.1385 24.6458 3.69434 24.6458C3.25017 24.6458 2.88184 24.2775 2.88184 23.8333C2.88184 19.2075 7.421 15.4375 13.0002 15.4375C18.5793 15.4375 23.1185 19.2075 23.1185 23.8333C23.1185 24.2775 22.7502 24.6458 22.306 24.6458Z" fill="black"/>
</g>
</g>
</svg>
