<svg xmlns="http://www.w3.org/2000/svg" width="26" height="26" viewBox="0 0 26 26" fill="none">
<path d="M9.20842 20.5833H8.66675C4.33342 20.5833 2.16675 19.5 2.16675 14.0833V8.66666C2.16675 4.33333 4.33342 2.16666 8.66675 2.16666H17.3334C21.6668 2.16666 23.8334 4.33333 23.8334 8.66666V14.0833C23.8334 18.4167 21.6668 20.5833 17.3334 20.5833H16.7918C16.4559 20.5833 16.1309 20.7458 15.9251 21.0167L14.3001 23.1833C13.5851 24.1367 12.4151 24.1367 11.7001 23.1833L10.0751 21.0167C9.90175 20.7783 9.50092 20.5833 9.20842 20.5833Z" stroke="#5B5B5B" stroke-width="2" stroke-miterlimit="10" stroke-linecap="round" stroke-linejoin="round"/>
<path d="M17.3296 11.9167H17.339" stroke="#5B5B5B" stroke-width="2.5" stroke-linecap="round" stroke-linejoin="round"/>
<path d="M12.9951 11.9167H13.0046" stroke="#5B5B5B" stroke-width="2.5" stroke-linecap="round" stroke-linejoin="round"/>
<path d="M8.66064 11.9167H8.67009" stroke="#5B5B5B" stroke-width="2.5" stroke-linecap="round" stroke-linejoin="round"/>
</svg>