<svg xmlns="http://www.w3.org/2000/svg" width="20" height="20" viewBox="0 0 20 20" fill="none">
<rect width="20" height="20" rx="5" fill="#D1D1D1"/>
<path d="M5.93002 15.3086C5.54877 15.3086 5.19252 15.1774 4.93627 14.9336C4.61127 14.6274 4.45502 14.1649 4.51127 13.6649L4.74252 11.6399C4.78627 11.2586 5.01752 10.7524 5.28627 10.4774L10.4175 5.04611C11.6988 3.68986 13.0363 3.65236 14.3925 4.93361C15.7488 6.21486 15.7863 7.55236 14.505 8.90861L11.9394 11.6242L9.37377 14.3399C9.11127 14.6211 8.62377 14.8836 8.24252 14.9461L6.23002 15.2899C6.12377 15.2961 6.03002 15.3086 5.93002 15.3086ZM12.4238 4.92736C11.9425 4.92736 11.5238 5.22736 11.0988 5.67736L5.96752 11.1149C5.84252 11.2461 5.69877 11.5586 5.67377 11.7399L5.44252 13.7649C5.41752 13.9711 5.46752 14.1399 5.58002 14.2461C5.69252 14.3524 5.86127 14.3899 6.06752 14.3586L8.08002 14.0149C8.26127 13.9836 8.56127 13.8211 8.68627 13.6899L13.8175 8.25861C14.5925 7.43361 14.8738 6.67111 13.7425 5.60861C13.2425 5.12736 12.8113 4.92736 12.4238 4.92736Z" fill="#5B5B5B"/>
<path d="M13.3051 9.95236C13.2926 9.95236 13.2738 9.95236 13.2613 9.95236C11.3113 9.75861 9.74256 8.27736 9.44256 6.33986C9.40506 6.08361 9.58006 5.84611 9.83631 5.80236C10.0926 5.76486 10.3301 5.93986 10.3738 6.19611C10.6113 7.70861 11.8363 8.87111 13.3613 9.02111C13.6176 9.04611 13.8051 9.27736 13.7801 9.53361C13.7488 9.77111 13.5426 9.95236 13.3051 9.95236Z" fill="#5B5B5B"/>
</svg>
